<svg width="720" height="200" viewBox="0 0 720 200" fill="none" xmlns="http://www.w3.org/2000/svg" role="img" aria-labelledby="technovaLogoTitle technovaLogoDesc">
  <title id="technovaLogoTitle">TechNova logo</title>
  <desc id="technovaLogoDesc">A premium logo lockup for TechNova featuring a gold monogram mark and wordmark.</desc>
  <defs>
    <linearGradient id="technovaLogoBg" x1="36" y1="18" x2="164" y2="168" gradientUnits="userSpaceOnUse">
      <stop stop-color="#F5D565"/>
      <stop offset="0.45" stop-color="#CA8A04"/>
      <stop offset="1" stop-color="#8A5A00"/>
    </linearGradient>
    <linearGradient id="technovaLogoGlow" x1="58" y1="34" x2="136" y2="124" gradientUnits="userSpaceOnUse">
      <stop stop-color="#FFF7D6"/>
      <stop offset="1" stop-color="#F5D565" stop-opacity="0.18"/>
    </linearGradient>
    <filter id="technovaLogoShadow" x="14" y="0" width="180" height="190" filterUnits="userSpaceOnUse" color-interpolation-filters="sRGB">
      <feFlood flood-opacity="0" result="BackgroundImageFix"/>
      <feColorMatrix in="SourceAlpha" type="matrix" values="0 0 0 0 0 0 0 0 0 0 0 0 0 0 0 0 0 0 127 0" result="hardAlpha"/>
      <feOffset dy="10"/>
      <feGaussianBlur stdDeviation="10"/>
      <feComposite in2="hardAlpha" operator="out"/>
      <feColorMatrix type="matrix" values="0 0 0 0 0.0705882 0 0 0 0 0.0588235 0 0 0 0 0.0352941 0 0 0 0.16 0"/>
      <feBlend mode="normal" in2="BackgroundImageFix" result="effect1_dropShadow_1_2"/>
      <feBlend mode="normal" in="SourceGraphic" in2="effect1_dropShadow_1_2" result="shape"/>
    </filter>
  </defs>

  <g filter="url(#technovaLogoShadow)">
    <rect x="34" y="20" width="140" height="150" rx="34" fill="#111111"/>
    <rect x="38" y="24" width="132" height="142" rx="30" fill="url(#technovaLogoBg)"/>
    <path d="M62 59.7647C62 52.1638 68.1634 46 75.7643 46H130.236C137.837 46 144 52.1638 144 59.7647V65.4706C144 73.0715 137.837 79.2353 130.236 79.2353H108.618V138.235C108.618 145.837 102.454 152 94.853 152H89.3824C81.7815 152 75.6177 145.837 75.6177 138.235V79.2353H62V59.7647Z" fill="#141414"/>
    <path d="M75.6177 46H130.236C137.837 46 144 52.1638 144 59.7647V65.4706C144 73.0715 137.837 79.2353 130.236 79.2353H75.6177V46Z" fill="#1B1B1B" fill-opacity="0.84"/>
    <path d="M129.851 38L141.297 57.9763L163.851 62.7967L148.365 78.6452L150.77 101.292L129.851 90.7023L108.932 101.292L111.338 78.6452L95.8511 62.7967L118.405 57.9763L129.851 38Z" fill="url(#technovaLogoGlow)"/>
    <path d="M130.281 49.2812L137.333 61.5858L151.344 64.5808L141.721 74.4292L143.217 88.5052L130.281 81.9536L117.345 88.5052L118.841 74.4292L109.219 64.5808L123.229 61.5858L130.281 49.2812Z" fill="#FFF9E7" fill-opacity="0.84"/>
  </g>

  <g>
    <text x="214" y="92" fill="#171717" font-size="62" font-weight="700" font-family="Iowan Old Style, Book Antiqua, Georgia, serif" letter-spacing="0.5">TechNova</text>
    <text x="216" y="126" fill="#A16207" font-size="21" font-weight="600" font-family="Avenir Next, Segoe UI, Helvetica, Arial, sans-serif" letter-spacing="3.6">PREMIUM TECH MARKETPLACE</text>
    <path d="M216 144H468" stroke="#D6A11C" stroke-width="3" stroke-linecap="round"/>
    <circle cx="493" cy="144" r="6" fill="#D6A11C"/>
    <text x="216" y="167" fill="#5B5B5B" font-size="18" font-weight="500" font-family="Avenir Next, Segoe UI, Helvetica, Arial, sans-serif">Thiết bị cao cấp · Giao diện hiện đại · Trải nghiệm sang</text>
  </g>
</svg>
