<svg width="256" height="256" viewBox="0 0 256 256" fill="none" xmlns="http://www.w3.org/2000/svg" role="img" aria-labelledby="technovaMarkTitle technovaMarkDesc">
  <title id="technovaMarkTitle">TechNova mark</title>
  <desc id="technovaMarkDesc">A premium gold monogram mark for TechNova, combining a stylized T with a rising spark.</desc>
  <defs>
    <linearGradient id="technovaMarkBg" x1="36" y1="28" x2="220" y2="228" gradientUnits="userSpaceOnUse">
      <stop stop-color="#F5D565"/>
      <stop offset="0.45" stop-color="#CA8A04"/>
      <stop offset="1" stop-color="#8A5A00"/>
    </linearGradient>
    <linearGradient id="technovaMarkGlow" x1="74" y1="56" x2="183" y2="180" gradientUnits="userSpaceOnUse">
      <stop stop-color="#FFF7D6"/>
      <stop offset="1" stop-color="#F5D565" stop-opacity="0.2"/>
    </linearGradient>
    <filter id="technovaShadow" x="19" y="11" width="218" height="234" filterUnits="userSpaceOnUse" color-interpolation-filters="sRGB">
      <feFlood flood-opacity="0" result="BackgroundImageFix"/>
      <feColorMatrix in="SourceAlpha" type="matrix" values="0 0 0 0 0 0 0 0 0 0 0 0 0 0 0 0 0 0 127 0" result="hardAlpha"/>
      <feOffset dy="10"/>
      <feGaussianBlur stdDeviation="12"/>
      <feComposite in2="hardAlpha" operator="out"/>
      <feColorMatrix type="matrix" values="0 0 0 0 0.0705882 0 0 0 0 0.0588235 0 0 0 0 0.0352941 0 0 0 0.18 0"/>
      <feBlend mode="normal" in2="BackgroundImageFix" result="effect1_dropShadow_1_1"/>
      <feBlend mode="normal" in="SourceGraphic" in2="effect1_dropShadow_1_1" result="shape"/>
    </filter>
  </defs>
  <g filter="url(#technovaShadow)">
    <rect x="43" y="35" width="170" height="186" rx="42" fill="#111111"/>
    <rect x="47" y="39" width="162" height="178" rx="38" fill="url(#technovaMarkBg)"/>
    <path d="M79 82C79 73.1634 86.1634 66 95 66H161C169.837 66 177 73.1634 177 82V88C177 96.8366 169.837 104 161 104H134V178C134 186.837 126.837 194 118 194H111C102.163 194 95 186.837 95 178V104H79V82Z" fill="#141414"/>
    <path d="M95 66H161C169.837 66 177 73.1634 177 82V88C177 96.8366 169.837 104 161 104H95V66Z" fill="#1B1B1B" fill-opacity="0.84"/>
    <path d="M160.5 58L173.8 81.2L200 86.8L182 105.2L184.8 131.5L160.5 119.2L136.2 131.5L139 105.2L121 86.8L147.2 81.2L160.5 58Z" fill="url(#technovaMarkGlow)"/>
    <path d="M161 71L169.2 85.3L185.4 88.7L174.3 100L176 116.2L161 108.6L146 116.2L147.7 100L136.6 88.7L152.8 85.3L161 71Z" fill="#FFF9E7" fill-opacity="0.84"/>
  </g>
</svg>
